<svg viewBox="0 0 24 24" fill="none" xmlns="http://www.w3.org/2000/svg">
<path d="M12.87 15.07L10.5 12.7L5 18.2V15.07H2V20H5H10.5V17L12.87 19.37L12.87 15.07ZM19.5 12.5L22 15L19.5 17.5L17 15L19.5 12.5ZM22 8H17V6H14V4H10V2H8V4H2V6H12.5C12.5 8.5 11.5 10.75 10 12.5C10 12.5 10 12.5 9.99 12.5C9.9 12.61 9.81 12.72 9.72 12.83C9.07 13.56 8.32 14.18 7.5 14.65C6 13.5 5 12 5 12H3C3 12 4.5 14.5 7 16C7 16 7.5 15.71 8 15.38C9.5 14.38 10.71 13.1 11.66 11.62C12.87 9.72 13.59 7.42 13.88 5H17V8H22V8Z" fill="#4285F4"/>
</svg>
