<svg fill="none" xmlns="http://www.w3.org/2000/svg" viewBox="0 0 40 40">
  <rect width="40" height="40" rx="10" fill="white"/>
  <path d="M13.4 27.1c-1.4 0-2.6-1.2-2.6-2.6s1.2-2.6 2.6-2.6h6.3v5.2h-6.3z" fill="#6CF"/>
  <path fill-rule="evenodd" clip-rule="evenodd" d="M6.3 11.4c1-1 2.6-1 3.6 0l3.5 3.5c1 1 1 2.6 0 3.6l-3.5 3.5c-1 1-2.6 1-3.6 0-1-1-1-2.6 0-3.6l2.4-2.4-2.4-2.4c-1-1-1-2.6 0-3.6z" fill="#06F"/>
  <path d="M12.3 18.2l-2.4 2.4c-1 1-2.6 1-3.6 0-1-1-1-2.6 0-3.6l.8-.8h5.2z" fill="#C6F"/>
  <path d="M19.6 25.8c-1.4 0-2.6-1.2-2.6-2.6s1.2-2.6 2.6-2.6 2.6 1.2 2.6 2.6-1.2 2.6-2.6 2.6z" fill="#06F"/>
</svg>
