<svg xmlns="http://www.w3.org/2000/svg" viewBox="350 495 1345 990">
  <path d="M0 0 C12.53 4.43 24.28 11.13 34.31 19.85 C42.84 27.58 49.51 37.09 54.88 47.24 C59.59 57.28 63.03 68.68 63.92 79.76 C64.46 93.29 63.74 106.05 59.7 119 C59.59 119.34 59.59 119.34 59.06 121.03 C56.34 129.35 52.54 136.38 47.05 143.23 C43.36 147.58 39.61 151.84 35.7 156 C35.08 156.69 34.47 157.38 33.84 158.09 C27.62 164.8 19.99 170.03 11.72 173.94 C0.02 179.01 -12.56 182.24 -25.3 183 C-27.9 183.01 -30.5 183 -33.09 182.96 C-33.81 182.95 -34.52 182.94 -35.25 182.93 C-38.21 182.88 -41.18 182.84 -44.14 182.76 C-54.88 182.48 -64.08 183.52 -74.3 187 C-81.93 190.07 -88.32 194.37 -94.3 200 C-97.48 203.54 -100.41 207.24 -103.3 211 C-108.03 217.01 -112.88 222.8 -118.03 228.45 C-121.11 231.91 -124.02 235.5 -126.93 239.1 C-129.47 242.21 -132.07 245.26 -134.68 248.32 C-138.57 252.86 -142.28 257.52 -145.93 262.25 C-149.72 267.16 -153.72 271.57 -158.2 275.88 C-161.11 278.82 -163.6 282.02 -166.14 285.27 C-168.61 288.39 -171.16 291.42 -173.74 294.44 C-177.15 298.44 -180.51 302.47 -183.8 306.57 C-186.98 310.48 -190.3 314.2 -193.74 317.88 C-197.48 321.89 -200.95 326 -204.24 330.38 C-212.17 340.9 -220.93 350.68 -229.86 360.35 C-237.43 368.57 -244.42 377.2 -251.3 386 C-251.8 386.63 -252.29 387.25 -252.79 387.89 C-260.69 397.99 -267.51 408.4 -271.5 420.67 C-273.16 427.4 -273.72 433.75 -272.94 440.65 C-271.13 450.21 -267.73 459.24 -262.83 467.64 C-259.53 472.75 -256.08 476.64 -251.12 480.19 C-245.24 483.88 -239.09 486.18 -232.32 487.66 C-220.33 489.78 -208.38 490.17 -196.23 490.17 C-194.69 490.18 -193.15 490.18 -191.61 490.18 C-188.39 490.19 -185.18 490.19 -181.96 490.19 C-177.89 490.19 -173.81 490.2 -169.74 490.22 C-166.56 490.23 -163.38 490.23 -160.2 490.23 C-158.7 490.23 -157.2 490.24 -155.7 490.25 C-144.07 490.3 -132.03 490.19 -120.93 486.32 C-114.71 483.53 -109.82 479.16 -104.68 474.76 C-98.61 469.64 -92.68 465.07 -85.3 462 C-75.77 459 -66.25 458.26 -56.3 459 C-48.92 459.88 -42.66 462.54 -36.18 466.07 C-29.18 470.08 -23.43 474.71 -18.3 481 C-12.61 488.59 -9.15 496.37 -6.62 505.46 C-5.03 512.26 -4.66 519.06 -5.3 526 C-7.09 534.67 -10.44 542.62 -15.3 550 C-21.02 557.58 -28.03 563.63 -36 568.73 C-42.17 572.3 -48.23 574.96 -55.3 576 C-63.96 576.78 -72.36 576.58 -80.8 574.38 C-88.49 571.82 -94.6 568.31 -100.79 563.12 C-102.61 561.57 -104.43 560 -106.22 558.41 C-115.29 550.35 -115.29 550.35 -120.78 547.89 C-121.49 547.68 -122.2 547.47 -122.93 547.25 C-123.64 547.03 -124.36 546.81 -125.09 546.58 C-129.58 545.41 -133.75 544.86 -138.39 544.78 C-139.61 544.76 -140.82 544.74 -142.06 544.71 C-143.37 544.69 -144.68 544.67 -146.03 544.65 C-147.41 544.63 -148.79 544.61 -150.18 544.58 C-153.09 544.53 -156 544.49 -158.91 544.45 C-161.84 544.4 -164.77 544.35 -167.7 544.3 C-182.77 544.02 -197.81 543.88 -212.88 544.39 C-213.44 544.41 -213.44 544.41 -216.31 544.5 C-225.02 544.85 -233.15 545.66 -241.3 549 C-244.24 550.44 -247.06 552.01 -249.87 553.69 C-250.51 554.08 -251.15 554.46 -251.82 554.86 C-256.28 557.77 -259.49 561.21 -262.65 565.49 C-265.51 569.84 -267.76 574.44 -269.99 579.13 C-270.91 581.03 -271.83 582.93 -272.75 584.82 C-273.19 585.72 -273.62 586.61 -274.06 587.53 C-275.69 590.77 -277.48 593.87 -279.3 597 C-281.56 601.29 -283.43 605.42 -284.05 610.25 C-284.16 611.84 -284.25 613.42 -284.3 615 C-284.36 616.02 -284.41 617.03 -284.46 618.07 C-284.64 624.22 -284.37 629.86 -282.53 635.74 C-277.6 648.85 -271.69 660.82 -263.56 672.23 C-261.46 675.2 -259.45 678.23 -257.43 681.25 C-257.02 681.86 -256.62 682.47 -256.2 683.1 C-251.22 690.57 -246.47 698.19 -241.69 705.8 C-235.47 715.68 -229.06 725.43 -222.56 735.13 C-220.26 738.57 -217.98 742.01 -215.71 745.47 C-212.28 750.67 -208.81 755.85 -205.3 761 C-204.59 762.07 -203.87 763.14 -203.13 764.24 C-198.74 770.28 -193.47 774.01 -187.26 778 C-178.11 783.01 -168.22 784.72 -157.99 786 C-144.62 787.85 -132.11 789.92 -120.06 796.39 C-108.88 802.93 -98.5 811.48 -90.37 821.63 C-84.63 829.65 -80.32 837.69 -77.05 847 C-76.72 847.92 -76.38 848.84 -76.03 849.79 C-72.55 859.52 -70.82 868.67 -71 879.03 C-72.03 892.38 -76.97 905.8 -82.3 918 C-87.29 927.81 -94.82 936.92 -102.88 944.39 C-112.62 952.42 -123.36 958.03 -135.3 962 C-149.9 966.13 -164.62 966.95 -179.7 965.73 C-185.14 964.91 -189.62 963.17 -194.44 960.55 C-196.66 959.35 -198.86 958.25 -201.14 957.18 C-209.37 953.28 -216.55 949.22 -223.3 943 C-223.75 942.61 -223.75 942.61 -226 940.62 C-234.63 932.57 -240.74 923.24 -245.93 912.7 C-250.5 902.21 -252.95 891.87 -253.46 880.48 C-253.75 867.75 -252.23 855.73 -247.74 843.75 C-247.53 843.19 -247.53 843.19 -246.45 840.35 C-243.98 833.11 -242.83 825.11 -243.05 817.44 C-243.93 808.88 -245.88 801.27 -249.84 793.64 C-252.36 789.1 -255.16 784.74 -257.99 780.38 C-259.24 778.44 -260.49 776.49 -261.74 774.55 C-262.35 773.6 -262.96 772.66 -263.59 771.69 C-265.92 768.04 -268.21 764.37 -270.49 760.69 C-277.26 749.82 -284.23 739.07 -291.37 728.44 C-294.8 723.33 -298.12 718.17 -301.37 712.94 C-301.78 712.28 -302.19 711.61 -302.62 710.93 C-303.03 710.27 -303.44 709.61 -303.86 708.93 C-315 691.02 -315 691.02 -320.57 684.15 C-321.8 682.63 -322.98 681.07 -324.13 679.48 C-327.53 674.89 -330.82 671.34 -335.62 668.19 C-340.98 665.04 -346.49 662.22 -352.3 660 C-352.92 659.74 -353.53 659.47 -354.15 659.2 C-363.28 655.78 -373.1 656.72 -382.68 656.88 C-386.29 656.93 -389.9 656.96 -393.52 657 C-394.38 657 -395.24 657.01 -396.13 657.02 C-401.76 657.06 -407.3 656.84 -412.91 656.25 C-420.91 655.44 -428.51 656.06 -436.3 658 C-445.11 660.57 -453.01 665.54 -460.3 671 C-463.17 673.52 -465.75 676.18 -468.3 679 C-469.15 679.79 -470 680.57 -470.87 681.38 C-474.48 685.27 -477.32 689.63 -480.3 694 C-481.41 695.55 -482.51 697.09 -483.62 698.63 C-487.07 703.56 -490.23 708.65 -493.4 713.76 C-498.54 722.04 -503.99 730.12 -509.46 738.19 C-512.78 743.1 -515.94 748.03 -518.87 753.19 C-520.97 756.86 -523.14 760.22 -525.8 763.5 C-531.76 770.92 -536.59 779.2 -539.59 788.24 C-541.68 796.3 -541.53 804.13 -540.49 812.35 C-539.14 821.31 -536.49 830 -533.94 838.67 C-531.12 849.08 -531.55 860.32 -532.3 871 C-533.7 880.9 -536.86 890.54 -541.65 899.31 C-548.53 910.51 -556.91 920.96 -567.38 928.99 C-576.97 935.58 -586.99 941.09 -598.3 944 C-612.05 946.9 -627.06 947.58 -640.98 945.39 C-650.79 943.41 -659.69 938.94 -668.3 934 C-669.2 933.49 -670.09 932.98 -671 932.46 C-680.54 926.34 -689.47 917.48 -696.09 908.3 C-698.35 904.97 -700.36 901.53 -702.3 898 C-702.8 897.11 -703.3 896.21 -703.82 895.28 C-707.79 887.36 -710.21 878.78 -711.3 870 C-712.3 857.01 -712.45 843.48 -708.69 830.89 C-704.44 818.37 -697.69 808.12 -689.3 798 C-688.69 797.17 -688.09 796.34 -687.46 795.48 C-684.68 792.28 -681.55 789.96 -678.12 787.5 C-677.45 787.02 -676.78 786.54 -676.09 786.04 C-671.34 782.65 -666.59 779.5 -661.3 777 C-660.95 776.83 -660.95 776.83 -659.17 775.96 C-649.04 771.46 -637.58 769.43 -626.62 768.19 C-615.74 766.73 -604.22 763.86 -594.33 759.04 C-590.94 757.09 -588.1 754.72 -585.3 752 C-584.62 751.35 -583.94 750.7 -583.23 750.02 C-576.12 742.58 -570.84 733.52 -565.31 724.89 C-559.95 716.55 -554.55 708.23 -549.12 699.94 C-548.71 699.32 -548.3 698.7 -547.89 698.06 C-543.66 691.61 -539.43 685.17 -535.14 678.77 C-534.51 677.83 -533.88 676.89 -533.23 675.92 C-532.07 674.21 -530.92 672.5 -529.76 670.79 C-526.73 666.3 -523.98 661.74 -521.39 656.98 C-520.11 654.65 -518.69 652.43 -517.24 650.19 C-513.97 644.69 -511.72 639.25 -510.3 633 C-508.9 622.93 -508.82 612.94 -511.3 603 C-512.68 599.47 -514.37 596.26 -516.3 593 C-518.75 588.8 -521.09 584.55 -523.36 580.25 C-523.91 579.21 -524.47 578.17 -525.03 577.1 C-526.17 574.95 -527.31 572.79 -528.44 570.63 C-530.66 566.47 -532.77 562.64 -535.81 559.02 C-542.61 553.53 -550.51 549.3 -558.8 546.57 C-564.5 545.19 -569.95 544.64 -575.8 544.41 C-576.74 544.37 -577.68 544.34 -578.65 544.29 C-591.01 543.83 -603.37 543.85 -615.74 543.87 C-619.2 543.88 -622.66 543.88 -626.13 543.87 C-629.5 543.87 -632.87 543.87 -636.25 543.87 C-636.86 543.87 -636.86 543.87 -639.94 543.86 C-662.01 543.92 -662.01 543.92 -672.54 547.79 C-679.05 550.65 -684.24 554.92 -689.68 559.44 C-696.84 565.36 -703.83 570.36 -712.68 573.38 C-720.56 575.82 -728.06 576.58 -736.3 576.18 C-743.92 575.5 -751.19 572.78 -757.99 569.38 C-765.07 565.23 -771.06 559.85 -776.34 553.59 C-781.29 546.91 -785.49 539.12 -787.86 531.12 C-789.57 522.93 -789.13 513.14 -788.02 504.88 C-786.8 498.77 -784.22 493.54 -780.99 488.25 C-779.78 486.49 -778.55 484.74 -777.3 483 C-776.76 482.2 -776.21 481.4 -775.65 480.57 C-772.07 475.57 -768.19 472 -763.05 468.64 C-749.47 460.55 -749.47 460.55 -742.03 459.25 C-732.49 458.38 -723.13 458.18 -713.8 460.63 C-707.03 462.88 -701.19 465.72 -695.71 470.35 C-693.95 471.9 -692.19 473.45 -690.43 475 C-685.4 479.45 -680.48 482.96 -674.41 485.92 C-667.07 488.48 -659.75 489.3 -652.01 489.26 C-651.57 489.26 -651.57 489.26 -649.37 489.27 C-646.53 489.28 -643.69 489.28 -640.84 489.27 C-638.85 489.27 -636.85 489.27 -634.85 489.28 C-630.68 489.28 -626.5 489.27 -622.33 489.26 C-617.01 489.25 -611.69 489.26 -606.37 489.27 C-602.25 489.28 -598.12 489.28 -594 489.27 C-592.04 489.27 -590.08 489.27 -588.12 489.28 C-564.25 489.32 -564.25 489.32 -552.93 485.13 C-549.06 483.45 -545.67 481.57 -542.3 479 C-541.67 478.52 -541.03 478.04 -540.38 477.55 C-535.85 473.9 -532.6 470.1 -529.75 465.03 C-525.93 457.05 -521.8 447.98 -521.07 439.11 C-520.84 428.67 -522.65 419.4 -526.18 409.57 C-528.83 403.7 -533.21 398.9 -537.3 394 C-538.74 392.23 -540.18 390.46 -541.62 388.69 C-544.93 384.65 -548.29 380.66 -551.68 376.69 C-555.55 372.15 -559.28 367.53 -562.93 362.82 C-566.8 357.83 -570.84 353.08 -575.12 348.43 C-578.25 344.95 -581.17 341.3 -584.12 337.66 C-586.13 335.22 -588.19 332.85 -590.3 330.5 C-594.81 325.48 -599.06 320.25 -603.3 315 C-609.94 306.8 -616.58 298.62 -623.42 290.59 C-626.3 287.2 -629.13 283.78 -631.93 280.32 C-634.75 276.84 -637.65 273.49 -640.68 270.19 C-644.78 265.7 -648.5 260.99 -652.21 256.18 C-655.66 251.75 -659.32 247.57 -663.12 243.43 C-668.25 237.73 -673.03 231.72 -677.62 225.57 C-683.62 217.89 -690.21 210.61 -698.58 205.52 C-706.3 201.13 -714.49 197.4 -723.3 196 C-726.12 195.97 -728.91 195.98 -731.73 196.05 C-733.41 196.07 -735.09 196.09 -736.78 196.11 C-739.4 196.15 -742.02 196.19 -744.63 196.25 C-758.22 196.55 -770.19 195.19 -783.07 190.68 C-794.5 186.29 -805.38 179.3 -814.8 171.5 C-822.51 164.27 -829.45 155.39 -834.3 146 C-836.37 141.13 -838.03 136.11 -839.64 131.07 C-840.26 129.16 -840.89 127.25 -841.53 125.34 C-843.53 119.19 -845.02 113.47 -845.3 107 C-845.4 105.94 -845.5 104.87 -845.6 103.77 C-846.26 91.6 -843.24 80.4 -839.39 68.92 C-835.53 58.54 -829.44 49.41 -822.3 41 C-821.56 40.01 -820.82 39.02 -820.05 38 C-812.89 29.52 -802.39 22.21 -792.68 16.88 C-782.78 12.23 -771.19 8.89 -760.3 8 C-746.66 7.29 -733.93 7.84 -720.85 12.14 C-714.1 14.63 -707.63 17.58 -701.3 21 C-700.48 21.43 -699.66 21.86 -698.82 22.3 C-690.1 27.13 -683.72 33.92 -677.45 41.58 C-669.84 51.23 -664.22 61.26 -660.62 73.04 C-657 85.99 -656.05 98.63 -657.3 112 C-658.11 118.06 -659.21 124.05 -660.43 130.04 C-661.73 136.78 -661.55 143.03 -660.37 149.82 C-658.43 159.5 -654.38 168.56 -649.3 177 C-646.04 181.69 -642.18 185.81 -638.3 190 C-636.79 191.85 -635.29 193.7 -633.8 195.57 C-630.61 199.5 -627.27 203.25 -623.8 206.94 C-619.31 211.75 -615.37 216.81 -611.48 222.13 C-608.71 225.79 -605.66 229.14 -602.55 232.51 C-600.23 235.09 -598.04 237.74 -595.87 240.44 C-592.79 244.24 -589.62 247.9 -586.3 251.5 C-580.11 258.24 -574.36 265.3 -568.8 272.57 C-566.34 275.77 -563.73 278.78 -560.99 281.75 C-557.06 286.05 -553.54 290.54 -550.04 295.18 C-547.4 298.65 -544.64 301.92 -541.68 305.13 C-538.66 308.4 -535.99 311.74 -533.43 315.38 C-530.04 320.17 -526.3 324.4 -522.3 328.67 C-519.06 332.14 -516.12 335.71 -513.27 339.5 C-510.08 343.57 -506.64 347.43 -503.22 351.31 C-501.88 352.84 -500.59 354.42 -499.3 356 C-499.3 356.66 -499.3 357.32 -499.3 358 C-498.7 358.27 -498.1 358.54 -497.48 358.81 C-495.25 360.04 -494.14 361.15 -492.49 363.07 C-486.12 369.57 -477.97 373.72 -469.88 377.69 C-460.79 381.32 -452.16 381.46 -442.49 381.52 C-436.09 381.42 -430.44 380.42 -424.28 378.74 C-419.39 377.53 -414.5 377.08 -409.49 376.69 C-408.96 376.65 -408.96 376.65 -406.24 376.44 C-392.1 375.52 -378.25 376.96 -364.37 379.63 C-355.69 381.29 -347.11 382.11 -338.31 380.68 C-330.1 379.02 -322.54 376.22 -315.3 372 C-314.45 371.54 -313.59 371.07 -312.71 370.59 C-300.33 363.37 -291.03 352.17 -282.3 341 C-280.93 339.27 -279.56 337.54 -278.18 335.82 C-277.53 335 -276.88 334.18 -276.2 333.34 C-273.9 330.51 -271.5 327.78 -269.08 325.06 C-267.13 322.8 -265.28 320.47 -263.43 318.13 C-259.98 313.77 -256.32 309.66 -252.58 305.55 C-249.52 302.13 -246.65 298.57 -243.76 295 C-240.95 291.58 -238.07 288.23 -235.18 284.88 C-231.89 281.07 -228.67 277.26 -225.62 273.25 C-223.17 270.05 -220.58 267.05 -217.87 264.07 C-214.28 260.13 -210.9 256.08 -207.6 251.9 C-204.72 248.26 -201.79 244.66 -198.87 241.07 C-198.3 240.37 -197.74 239.68 -197.16 238.97 C-196.05 237.6 -194.94 236.24 -193.83 234.88 C-192.5 233.25 -191.18 231.62 -189.86 229.99 C-185.43 224.55 -180.94 219.19 -176.4 213.85 C-173.43 210.35 -170.51 206.82 -167.62 203.25 C-164.24 199.11 -160.77 195.08 -157.2 191.11 C-155.42 189.13 -153.67 187.14 -151.93 185.13 C-149.95 182.85 -147.95 180.62 -145.89 178.41 C-137.94 169.85 -130.65 160.97 -126.3 150 C-122.93 139.08 -120.52 128.5 -121.3 117 C-121.77 114.64 -122.28 112.29 -122.8 109.94 C-125.55 97.07 -125.91 82.46 -123.65 69.5 C-122.75 65.87 -121.66 62.49 -120.3 59 C-120.06 58.36 -119.82 57.72 -119.57 57.05 C-114.82 44.55 -108.03 34.13 -99.3 24 C-90.14 14.74 -78.91 7.68 -67.02 2.51 C-45.91 -6.26 -21.81 -6.57 0 0 Z " fill="#C5692D" transform="translate(1421.3046875,507.99609375)"/>
  <path d="M0 0 C1.06 0.1 2.12 0.2 3.22 0.3 C29.11 2.83 53.91 8.2 77.31 19.94 C89.72 27.12 102.51 36.27 111.75 47.31 C122.17 60.78 130.92 75.93 135.75 92.31 C142.52 117.03 146.32 142 148.46 167.52 C148.52 168.22 148.58 168.92 148.64 169.64 C148.7 170.34 148.76 171.05 148.82 171.77 C151.94 208.66 151.94 208.66 158.13 223.51 C161.11 228.66 165.33 232.41 169.75 236.31 C170.36 236.97 170.97 237.63 171.59 238.31 C173.75 240.31 173.75 240.31 176.09 241.52 C183.3 244.14 190.19 245.2 197.81 245.88 C200.03 246.07 202.25 246.28 204.47 246.5 C205.44 246.59 206.41 246.67 207.4 246.76 C208.18 246.94 208.95 247.12 209.75 247.31 C210.41 248.3 211.07 249.29 211.75 250.31 C212.02 253.04 212.02 253.04 212.04 256.37 C212.05 257.62 212.07 258.87 212.08 260.16 C212.08 261.52 212.08 262.88 212.09 264.25 C212.09 265.64 212.1 267.04 212.11 268.44 C212.12 271.37 212.12 274.3 212.12 277.24 C212.12 280.99 212.15 284.74 212.18 288.5 C212.2 291.39 212.21 294.27 212.21 297.16 C212.21 298.55 212.22 299.93 212.23 301.31 C212.25 303.25 212.25 305.19 212.24 307.12 C212.24 308.22 212.24 309.33 212.24 310.46 C212.16 310.93 212.16 310.93 211.75 313.31 C209.87 315.66 209.87 315.66 207.75 317.31 C205.39 317.96 205.39 317.96 202.79 318.18 C202.31 318.23 202.31 318.23 199.88 318.47 C198.87 318.57 197.86 318.66 196.81 318.75 C189.01 319.63 181.78 320.49 174.54 323.68 C169.19 326.81 164.86 330.69 160.75 335.31 C155.95 341.67 152.94 348.7 150.75 356.31 C147.44 369.96 145.7 383.77 144.17 397.71 C141.51 421.73 138.67 445.37 130.75 468.31 C130.4 469.5 130.04 470.69 129.68 471.91 C124.27 489.66 115.29 505.83 103.75 520.31 C94.52 531.61 83.92 540.33 71.16 547.5 C52.77 557.44 31.63 562.45 10.98 564.9 C-4.03 566.55 -19.15 567.55 -34.25 567.31 C-36.24 563.89 -37.98 560.89 -38.65 556.97 C-38.82 554.4 -38.88 551.86 -38.89 549.29 C-38.91 548.34 -38.93 547.39 -38.95 546.41 C-38.99 544.42 -39.02 542.42 -39.03 540.42 C-39.06 537.41 -39.12 534.41 -39.18 531.41 C-39.33 522.52 -39.36 513.63 -39.01 504.75 C-38.99 504.1 -38.99 504.1 -38.87 500.81 C-38.25 497.31 -38.25 497.31 -36.37 493.93 C-36.02 493.5 -36.02 493.5 -34.25 491.31 C-31.58 489.96 -31.58 489.96 -28.25 489.31 C-25.17 489.06 -22.09 489 -19 488.94 C-12.01 488.69 -5.33 488.01 1.5 486.5 C2.21 486.35 2.93 486.19 3.66 486.04 C9.44 484.66 14.63 482.37 19.59 479.1 C24.32 475.66 27.46 470.84 30.54 465.96 C38.33 453.02 41.41 437.83 43.78 423.07 C45.32 413.06 46.68 403.04 47.84 392.98 C50.59 369.3 55.76 345.24 67.27 324.15 C70.9 317.78 75.06 311.96 79.75 306.31 C80.47 305.44 81.19 304.57 81.93 303.67 C87.24 297.51 93.09 292 99.75 287.31 C102.58 286.06 102.58 286.06 104.75 285.31 C104.75 283.66 104.75 282.01 104.75 280.31 C104.18 280.05 103.61 279.78 103.02 279.51 C95.68 275.64 89.18 269.53 83.75 263.31 C73.8 250.84 66.74 237.37 61.86 222.2 C59.05 212.58 57.08 202.99 55.69 193.06 C55.52 191.88 55.34 190.7 55.17 189.48 C54.26 183.16 53.43 176.84 52.69 170.5 C51.99 164.62 50.85 158.96 49.53 153.19 C48.59 148.5 47.99 143.8 47.38 139.06 C45.64 126.1 42.89 112 36.75 100.31 C35.22 98.09 33.64 95.98 31.92 93.91 C31.54 93.38 31.15 92.85 30.75 92.31 C30.75 91.65 30.75 90.99 30.75 90.31 C30.18 90.04 29.61 89.77 29.02 89.49 C26.69 88.28 24.57 86.88 22.38 85.44 C13.54 80.14 3.66 78.37 -6.38 76.69 C-7.1 76.58 -7.82 76.47 -8.56 76.35 C-11.32 75.92 -13.97 75.41 -16.62 74.54 C-17.16 74.13 -17.69 73.73 -18.25 73.31 C-19.6 70.59 -20.24 68.42 -20.5 65.39 C-20.51 64.32 -20.51 63.24 -20.51 62.13 C-20.52 60.91 -20.52 59.68 -20.53 58.42 C-20.53 57.76 -20.53 57.76 -20.52 54.44 C-20.52 53.07 -20.52 51.7 -20.52 50.32 C-20.52 47.46 -20.52 44.59 -20.51 41.72 C-20.5 38.05 -20.51 34.38 -20.52 30.72 C-20.53 27.89 -20.52 25.06 -20.52 22.23 C-20.52 20.22 -20.52 18.21 -20.53 16.2 C-20.52 14.98 -20.52 13.75 -20.51 12.49 C-20.51 11.95 -20.51 11.95 -20.5 9.23 C-20.25 6.31 -20.25 6.31 -19.42 3.51 C-19.03 2.79 -18.65 2.06 -18.25 1.31 C-12.27 -1.46 -6.42 -0.64 0 0 Z " fill="#C5692E" transform="translate(1468.25,755.6875)"/>
  <path d="M0 0 C0.8 -0.02 1.59 -0.04 2.41 -0.06 C4.72 -0.08 4.72 -0.08 8.5 0.25 C8.83 0.75 8.83 0.75 10.5 3.25 C10.77 6.13 10.77 6.13 10.79 9.68 C10.8 10.32 10.8 10.97 10.81 11.64 C10.83 13.78 10.83 15.92 10.84 18.06 C10.84 19.55 10.85 21.04 10.86 22.52 C10.87 25.64 10.87 28.76 10.87 31.88 C10.87 35.88 10.9 39.87 10.93 43.87 C10.95 46.94 10.96 50.02 10.96 53.09 C10.96 54.56 10.97 56.04 10.98 57.51 C11 59.57 11 61.63 10.99 63.69 C10.99 64.87 10.99 66.04 10.99 67.25 C10.91 67.74 10.91 67.74 10.5 70.25 C8.62 72.6 8.62 72.6 6.5 74.25 C0.96 76.56 -5.08 77.38 -11 78.19 C-18.29 79.26 -24.65 81.15 -31.12 84.68 C-35.79 87.65 -39.36 90.94 -42.75 95.31 C-48.91 104.44 -52.69 114.4 -55.1 125.11 C-58.33 140.52 -60.34 156.16 -62 171.81 C-64.57 195.61 -67.42 219.4 -78.77 240.9 C-80.56 244.09 -82.48 247.19 -84.5 250.25 C-84.92 250.88 -85.33 251.51 -85.76 252.16 C-92.91 262.87 -100.41 270.74 -111.02 278.04 C-111.84 278.77 -112.66 279.5 -113.5 280.25 C-114.35 283.02 -114.35 283.02 -114.5 285.25 C-113.77 285.51 -113.04 285.77 -112.29 286.03 C-105.41 289.04 -99.78 294.84 -94.44 300 C-85.01 309.68 -76.81 320.96 -71.57 333.47 C-62.18 357.65 -58.84 383.55 -55.35 409.09 C-50.26 446.22 -50.26 446.22 -41.69 463.25 C-37.94 469.6 -33.21 474.95 -27.71 479.84 C-23.35 483 -18.52 484.21 -13.38 485.5 C-10.76 486.13 -8.14 486.7 -5.5 487.25 C-5.04 487.35 -5.04 487.35 -2.73 487.84 C0.21 488.21 3.01 488.34 5.98 488.39 C6.98 488.41 7.98 488.43 9.01 488.45 C11.09 488.48 13.18 488.5 15.27 488.5 C18.09 488.57 20.73 488.69 23.5 489.25 C26.15 491.61 26.15 491.61 27.5 494.25 C28.59 497.52 28.64 499.96 28.66 503.4 C28.67 504.67 28.68 505.94 28.69 507.25 C28.7 508.63 28.7 510.02 28.7 511.4 C28.71 512.82 28.71 514.24 28.72 515.67 C28.73 518.64 28.74 521.62 28.74 524.6 C28.75 528.41 28.77 532.23 28.8 536.04 C28.82 538.98 28.82 541.91 28.82 544.85 C28.83 546.25 28.83 547.66 28.85 549.07 C28.86 551.03 28.86 553 28.86 554.97 C28.86 555.53 28.86 555.53 28.87 558.36 C28.5 561.25 28.5 561.25 27.21 563.6 C26.92 563.87 26.92 563.87 25.5 565.25 C22.71 565.81 20.31 566.13 17.5 566.25 C17.16 566.27 17.16 566.27 15.44 566.35 C-12.24 567.27 -40.34 563.26 -66.58 554.36 C-77.33 550.28 -88.26 544.21 -96.95 536.64 C-97.79 535.85 -98.63 535.06 -99.5 534.25 C-99.8 533.98 -99.8 533.98 -101.29 532.61 C-111.24 523.44 -119.08 514.15 -125.5 502.25 C-125.82 501.66 -126.15 501.07 -126.48 500.46 C-128.64 496.46 -130.6 492.38 -132.5 488.25 C-132.78 487.64 -133.07 487.03 -133.36 486.41 C-145.86 459.36 -149.85 429.47 -153.32 400.15 C-158.19 359 -158.19 359 -165.31 343.31 C-169.08 336.66 -174.22 331.14 -179.93 326.11 C-182.6 324.18 -184.95 323.12 -188.06 322.06 C-188.53 321.9 -188.53 321.9 -190.88 321.08 C-194.54 319.92 -197.85 319.13 -201.69 318.97 C-202.47 318.93 -203.25 318.89 -204.05 318.86 C-204.46 318.84 -204.46 318.84 -206.5 318.75 C-208.1 318.68 -209.71 318.61 -211.31 318.53 C-212.02 318.5 -212.73 318.47 -213.46 318.44 C-215.65 318.24 -217.45 318.06 -219.5 317.25 C-220.6 315.59 -220.6 315.59 -221.5 313.25 C-221.75 310.4 -221.75 310.4 -221.76 307.06 C-221.77 305.81 -221.77 304.56 -221.78 303.27 C-221.77 301.91 -221.77 300.55 -221.77 299.18 C-221.77 297.78 -221.77 296.38 -221.77 294.98 C-221.77 292.06 -221.77 289.13 -221.76 286.2 C-221.75 282.44 -221.76 278.69 -221.77 274.93 C-221.78 272.04 -221.77 269.15 -221.77 266.27 C-221.77 264.88 -221.77 263.5 -221.77 262.11 C-221.78 260.18 -221.77 258.24 -221.76 256.31 C-221.76 255.21 -221.76 254.11 -221.75 252.98 C-221.67 252.08 -221.59 251.18 -221.5 250.25 C-220.84 249.26 -220.18 248.27 -219.5 247.25 C-215.57 246.24 -211.69 246.15 -207.64 246.06 C-199.91 245.84 -192.97 244.86 -185.73 241.95 C-181.14 239.53 -177.5 236.69 -173.84 233.03 C-169.97 228.43 -167.59 223.87 -165.5 218.25 C-162.13 206.44 -160.52 194.63 -159.38 182.44 C-159.21 180.75 -159.04 179.05 -158.87 177.36 C-158.2 170.65 -157.56 163.94 -156.95 157.22 C-154.4 129.58 -150.72 99.15 -138.37 73.95 C-130.78 59.27 -121.19 45.77 -108.69 34.88 C-94.6 23.15 -78.87 15.33 -61.54 9.56 C-41.89 3.38 -20.61 0.14 0 0 Z " fill="#C5692D" transform="translate(589.5,755.75)"/>
</svg>